<svg width="25" height="24" viewBox="0 0 25 24" fill="none" xmlns="http://www.w3.org/2000/svg">
<path fill-rule="evenodd" clip-rule="evenodd" d="M4.5 8.00848C4.56409 8.06747 4.63191 8.12462 4.70354 8.17972L11.8233 13.6565C12.8118 14.4168 14.1882 14.4168 15.1767 13.6565L22.2965 8.17972C22.3681 8.12462 22.4359 8.06747 22.5 8.00848V16C22.5 17.1046 21.6046 18 20.5 18H6.5C5.39543 18 4.5 17.1046 4.5 16V8.00848ZM5.21504 6.46734C5.56258 6.17566 6.01078 6 6.5 6H20.5C20.9892 6 21.4374 6.17566 21.785 6.46734C21.7069 6.66147 21.5747 6.84244 21.3819 6.99078L14.2621 12.4675C13.8128 12.8131 13.1872 12.8131 12.7379 12.4675L5.61811 6.99078C5.42526 6.84244 5.29311 6.66147 5.21504 6.46734Z" fill="black"/>
</svg>
