<?xml version="1.0" standalone="no"?>
<!DOCTYPE svg PUBLIC "-//W3C//DTD SVG 20010904//EN"
 "http://www.w3.org/TR/2001/REC-SVG-20010904/DTD/svg10.dtd">
<svg version="1.0" xmlns="http://www.w3.org/2000/svg"
 width="172.000000pt" height="172.000000pt" viewBox="0 0 172.000000 172.000000"
 preserveAspectRatio="xMidYMid meet">
<metadata>
Created by potrace 1.14, written by Peter Selinger 2001-2017
</metadata>
<g transform="translate(0.000000,172.000000) scale(0.100000,-0.100000)"
fill="#000000" stroke="none">
<path d="M865 1607 c-10 -39 -88 -103 -177 -145 -137 -66 -209 -135 -249 -240
-26 -69 -29 -198 -7 -283 9 -31 16 -100 17 -155 3 -130 15 -183 63 -279 80
-161 204 -302 313 -357 38 -20 187 -56 240 -59 22 -2 43 -8 47 -13 5 -7 8 -7
8 -1 0 6 45 9 117 8 170 -3 193 18 132 116 -45 75 -102 213 -165 405 -76 234
-116 324 -261 595 -25 47 -68 127 -95 179 l-49 95 50 36 c57 41 66 57 52 95
-13 32 -29 34 -36 3z"/>
</g>
</svg>
